<svg xmlns="http://www.w3.org/2000/svg" xmlns:xlink="http://www.w3.org/1999/xlink" version="1.1" x="0px" y="0px" viewBox="0 0 100 100" enable-background="new 0 0 100 100" xml:space="preserve" ><g><path d="M46.26,30.02c-0.001,0.029-0.009,0.057-0.009,0.086c0,2.074,1.681,3.754,3.754,3.754c2.073,0,3.754-1.68,3.754-3.754   c0-0.029-0.008-0.057-0.009-0.086c2.247-1.298,3.764-3.721,3.764-6.501c0-4.146-3.361-7.508-7.509-7.508   c-4.147,0-7.508,3.361-7.508,7.508C42.497,26.299,44.013,28.722,46.26,30.02z M53.09,23.098c1.036,0,1.877,0.84,1.877,1.877   c0,1.036-0.841,1.877-1.877,1.877c-1.035,0-1.877-0.841-1.877-1.877C51.213,23.938,52.055,23.098,53.09,23.098z M46.922,23.098   c1.036,0,1.877,0.84,1.877,1.877c0,1.036-0.841,1.877-1.877,1.877c-1.036,0-1.877-0.841-1.877-1.877   C45.045,23.938,45.886,23.098,46.922,23.098z"/><path d="M47.004,75.244v-6.35c0-0.689-0.56-1.25-1.25-1.25s-1.25,0.561-1.25,1.25v6.35c-0.744,0.434-1.25,1.23-1.25,2.154v3.295   c0,1.381,1.119,2.5,2.5,2.5s2.5-1.119,2.5-2.5v-3.295C48.254,76.475,47.748,75.678,47.004,75.244z"/><path d="M38.666,49.346c0.69,0,1.25-0.561,1.25-1.25v-7.548c0-0.69-0.56-1.25-1.25-1.25s-1.25,0.56-1.25,1.25v7.548   C37.416,48.786,37.976,49.346,38.666,49.346z"/><path d="M39.916,55.402v-3.517c0-0.69-0.56-1.25-1.25-1.25s-1.25,0.56-1.25,1.25v3.517c-0.744,0.434-1.25,1.229-1.25,2.154v1.877   c0,1.381,1.119,2.5,2.5,2.5s2.5-1.119,2.5-2.5v-1.877C41.166,56.633,40.66,55.836,39.916,55.402z"/><path d="M62.594,55.402v-3.517c0-0.69-0.56-1.25-1.25-1.25c-0.689,0-1.25,0.56-1.25,1.25v3.517c-0.744,0.434-1.25,1.229-1.25,2.154   v1.877c0,1.381,1.119,2.5,2.5,2.5s2.5-1.119,2.5-2.5v-1.877C63.844,56.633,63.338,55.836,62.594,55.402z"/><path d="M61.344,49.346c0.69,0,1.25-0.561,1.25-1.25v-7.548c0-0.69-0.56-1.25-1.25-1.25c-0.689,0-1.25,0.56-1.25,1.25v7.548   C60.094,48.786,60.652,49.346,61.344,49.346z"/><path d="M59.988,37.942c0-0.689-0.559-1.25-1.25-1.25h-7.483v-0.396c0-0.689-0.56-1.25-1.25-1.25c-0.69,0-1.25,0.561-1.25,1.25   v0.396h-7.484c-0.69,0-1.25,0.561-1.25,1.25c0,0.691,0.56,1.25,1.25,1.25h7.484v13.275c-0.685-0.916-1.769-1.52-3.001-1.52   c-2.073,0-3.754,1.682-3.754,3.754c0,1.633,1.049,3.008,2.504,3.525v6.877c0,0.69,0.56,1.25,1.25,1.25s1.25-0.56,1.25-1.25v-6.877   c1.062-0.377,1.897-1.213,2.274-2.275h1.453c0.377,1.064,1.213,1.898,2.277,2.275v6.877c0,0.69,0.561,1.25,1.25,1.25   s1.25-0.56,1.25-1.25v-6.879c1.454-0.519,2.501-1.892,2.501-3.523c0-2.072-1.681-3.754-3.754-3.754   c-1.231,0-2.315,0.604-3.001,1.52V39.192h7.484C59.43,39.192,59.988,38.633,59.988,37.942z"/><path d="M44.104,43.445h1.882c0.69,0,1.25-0.56,1.25-1.25s-0.56-1.25-1.25-1.25h-1.882c-0.69,0-1.25,0.56-1.25,1.25   S43.414,43.445,44.104,43.445z"/><path d="M44.104,47.698h1.882c0.69,0,1.25-0.561,1.25-1.25c0-0.691-0.56-1.25-1.25-1.25h-1.882c-0.69,0-1.25,0.559-1.25,1.25   C42.854,47.137,43.414,47.698,44.104,47.698z"/><path d="M55.908,40.945h-1.883c-0.689,0-1.25,0.56-1.25,1.25s0.561,1.25,1.25,1.25h1.883c0.689,0,1.25-0.56,1.25-1.25   S56.6,40.945,55.908,40.945z"/><path d="M55.908,45.198h-1.883c-0.689,0-1.25,0.559-1.25,1.25c0,0.689,0.561,1.25,1.25,1.25h1.883c0.689,0,1.25-0.561,1.25-1.25   C57.158,45.756,56.6,45.198,55.908,45.198z"/><path d="M55.509,75.244v-6.35c0-0.689-0.56-1.25-1.25-1.25s-1.25,0.561-1.25,1.25v6.35c-0.743,0.434-1.25,1.23-1.25,2.154v3.295   c0,1.381,1.119,2.5,2.5,2.5c1.382,0,2.5-1.119,2.5-2.5v-3.295C56.759,76.475,56.253,75.678,55.509,75.244z"/></g></svg>